<svg width="22" height="20" viewBox="0 0 22 20" fill="none" xmlns="http://www.w3.org/2000/svg">
<path d="M12.5 19V11.5C12.5 11.3011 12.579 11.1103 12.7197 10.9697C12.8603 10.829 13.0511 10.75 13.25 10.75H16.25C16.4489 10.75 16.6397 10.829 16.7803 10.9697C16.921 11.1103 17 11.3011 17 11.5V19M12.5 19H1.35999M12.5 19H17M17 19H20.64M19.25 19V7.349M19.25 7.349C18.6501 7.6951 17.9489 7.82304 17.2654 7.71113C16.5819 7.59922 15.9582 7.25435 15.5 6.735C14.95 7.357 14.146 7.75 13.25 7.75C12.8243 7.75041 12.4034 7.66 12.0154 7.48479C11.6274 7.30959 11.2812 7.05363 11 6.734C10.45 7.357 9.64599 7.75 8.74999 7.75C8.32427 7.75041 7.90336 7.66 7.51536 7.48479C7.12736 7.30959 6.7812 7.05363 6.49999 6.734C6.04191 7.25351 5.41823 7.59858 4.73473 7.71067C4.05124 7.82276 3.35001 7.69498 2.74999 7.349M19.25 7.349C19.6486 7.11891 19.9889 6.80019 20.2446 6.41751C20.5003 6.03484 20.6645 5.59846 20.7245 5.14215C20.7846 4.68584 20.7388 4.22184 20.5908 3.78605C20.4428 3.35026 20.1965 2.95436 19.871 2.629L18.681 1.44C18.4 1.15862 18.0187 1.00035 17.621 1H4.37799C3.98044 1.00008 3.59919 1.15798 3.31799 1.439L2.12899 2.629C1.80423 2.95474 1.5586 3.3507 1.41106 3.78637C1.26351 4.22204 1.21799 4.68577 1.27799 5.14182C1.33799 5.59786 1.50191 6.03403 1.75713 6.41671C2.01234 6.79939 2.35202 7.11835 2.74999 7.349M2.74999 19V7.349M5.74999 16H9.49999C9.6989 16 9.88967 15.921 10.0303 15.7803C10.171 15.6397 10.25 15.4489 10.25 15.25V11.5C10.25 11.3011 10.171 11.1103 10.0303 10.9697C9.88967 10.829 9.6989 10.75 9.49999 10.75H5.74999C5.55108 10.75 5.36031 10.829 5.21966 10.9697C5.07901 11.1103 4.99999 11.3011 4.99999 11.5V15.25C4.99999 15.664 5.33599 16 5.74999 16Z" stroke="#686B6F" stroke-width="1.5" stroke-linecap="round" stroke-linejoin="round"/>
</svg>
