<svg width="21" height="21" viewBox="0 0 21 21" fill="none" xmlns="http://www.w3.org/2000/svg">
<path d="M1.00768 7.19116C7.17158 7.19116 13.3122 7.19116 19.484 7.19116C19.484 7.28003 19.484 7.36154 19.484 7.44244C19.484 9.8473 19.4865 12.2522 19.4834 14.6576C19.4804 17.2059 17.8075 19.229 15.3025 19.7045C14.9967 19.7628 14.6786 19.7781 14.366 19.7787C11.616 19.7842 8.86594 19.7836 6.11653 19.7811C3.56978 19.7793 1.52169 18.0731 1.06786 15.5714C1.0218 15.3171 1.00399 15.0535 1.00338 14.7949C0.998466 12.3208 1.00031 9.8473 1.00031 7.37318C1.00031 7.32048 1.00461 7.26777 1.00768 7.19116ZM7.71631 12.2178C7.71631 12.9686 7.71262 13.7193 7.71753 14.4701C7.72245 15.1976 8.37464 15.5892 9.01394 15.2411C10.3785 14.4989 11.7369 13.7451 13.0991 12.9992C13.4129 12.827 13.6039 12.5807 13.6008 12.2123C13.5977 11.8538 13.4092 11.6136 13.1034 11.4462C11.748 10.7028 10.3963 9.95393 9.03912 9.2136C8.36175 8.84405 7.71876 9.23505 7.71631 10.0115C7.71446 10.7476 7.71631 11.483 7.71631 12.2178Z" stroke="#686B6F" stroke-width="1.45934"/>
<path d="M11.8916 1.00109C12.1551 1.00109 12.3757 1.00109 12.5962 1.00109C13.3968 1.00109 14.1974 0.998302 14.998 1.00165C17.1636 1.01112 18.9864 2.48031 19.4609 4.59523C19.4743 4.6554 19.4827 4.71725 19.4967 4.79748C19.4241 4.80249 19.3649 4.81085 19.3052 4.81085C18.1568 4.8114 17.0078 4.81363 15.8594 4.80695C15.7673 4.80639 15.6517 4.76516 15.5875 4.70165C14.3816 3.50601 13.1818 2.30369 11.981 1.10305C11.962 1.08355 11.9447 1.06182 11.8916 1.00109Z" stroke="#686B6F" stroke-width="1.32668"/>
<path d="M6.04288 1.00167C6.98025 1.00167 7.8629 1 8.74612 1.00501C8.79915 1.00557 8.86336 1.04624 8.90355 1.08636C10.1212 2.29982 11.336 3.51551 12.5509 4.7312C12.5643 4.74457 12.5715 4.76407 12.5933 4.79917C12.5274 4.80363 12.476 4.81087 12.4247 4.81087C11.6174 4.81143 10.8101 4.81477 10.0028 4.80697C9.91071 4.80586 9.79403 4.76686 9.73038 4.70334C8.53955 3.52275 7.35486 2.33548 6.16961 1.14931C6.13611 1.117 6.1082 1.07911 6.04288 1.00167Z" stroke="#686B6F" stroke-width="1.32668"/>
<path d="M3.47798 1.53314C4.56218 2.6179 5.64359 3.69932 6.73504 4.79133C4.85919 4.79133 2.98278 4.79133 1.10581 4.79133C1.01425 3.80964 2.34912 1.97886 3.47798 1.53314Z" stroke="#686B6F" stroke-width="1.32668"/>
</svg>
