<svg width="22" height="21" viewBox="0 0 22 21" fill="none" xmlns="http://www.w3.org/2000/svg">
<path d="M8.97162 15.6729C10.4306 15.6729 11.7929 15.1982 12.9003 14.4072L17.0663 18.5732C17.2597 18.7666 17.5146 18.8633 17.7783 18.8633C18.3495 18.8633 18.7626 18.4238 18.7626 17.8613C18.7626 17.5977 18.6747 17.3516 18.4814 17.1582L14.3417 13.0098C15.2119 11.8672 15.7304 10.4521 15.7304 8.91406C15.7304 5.19629 12.6894 2.15527 8.97162 2.15527C5.24506 2.15527 2.21283 5.19629 2.21283 8.91406C2.21283 12.6318 5.24506 15.6729 8.97162 15.6729ZM8.97162 14.2139C6.06244 14.2139 3.67181 11.8145 3.67181 8.91406C3.67181 6.01367 6.06244 3.61426 8.97162 3.61426C11.872 3.61426 14.2714 6.01367 14.2714 8.91406C14.2714 11.8145 11.872 14.2139 8.97162 14.2139Z" fill="#A04040"/>
</svg>
