<svg width="24" height="24" viewBox="0 0 24 24" fill="none" xmlns="http://www.w3.org/2000/svg">
<path d="M6.74707 3.99998H10.2111C10.4011 4.00004 10.584 4.07222 10.7229 4.20195C10.8617 4.33168 10.9461 4.50928 10.9591 4.69886C10.972 4.88844 10.9126 5.07587 10.7926 5.22328C10.6727 5.37068 10.5013 5.46708 10.3131 5.49298L10.2111 5.49998H6.74707C6.17711 5.49989 5.62835 5.71612 5.21164 6.10498C4.79493 6.49385 4.54133 7.02637 4.50207 7.59498L4.49707 7.74998V17.25C4.49725 17.8199 4.71373 18.3686 5.10278 18.7851C5.49183 19.2016 6.02445 19.455 6.59307 19.494L6.74707 19.5H16.2471C16.8174 19.5003 17.3665 19.284 17.7835 18.895C18.2004 18.5059 18.454 17.9729 18.4931 17.404L18.4981 17.25V16.752C18.4981 16.562 18.5703 16.379 18.7 16.2402C18.8298 16.1013 19.0074 16.0169 19.197 16.004C19.3865 15.991 19.574 16.0505 19.7214 16.1704C19.8688 16.2903 19.9652 16.4617 19.9911 16.65L19.9981 16.752V17.25C19.9979 18.21 19.6295 19.1333 18.9689 19.8299C18.3083 20.5264 17.4057 20.943 16.4471 20.994L16.2471 21H6.74707C5.78691 21.0001 4.8633 20.6318 4.16656 19.9712C3.46981 19.3105 3.05302 18.4078 3.00207 17.449L2.99707 17.249V7.74898C2.99724 6.78915 3.36544 5.86593 4.02586 5.16943C4.68627 4.47293 5.58861 4.05617 6.54707 4.00498L6.74707 3.99998ZM14.5011 6.54398V3.74998C14.501 3.61202 14.5389 3.47672 14.6108 3.35895C14.6826 3.24117 14.7856 3.1455 14.9083 3.08244C15.031 3.01939 15.1687 2.99139 15.3063 3.00155C15.4438 3.0117 15.576 3.0596 15.6881 3.13998L15.7701 3.20798L21.7651 8.95798C22.0451 9.22698 22.0701 9.65798 21.8411 9.95598L21.7651 10.041L15.7701 15.793C15.6705 15.8886 15.5465 15.9549 15.4118 15.9845C15.277 16.0142 15.1366 16.0061 15.0061 15.9611C14.8757 15.9161 14.7601 15.836 14.6723 15.7296C14.5844 15.6232 14.5276 15.4946 14.5081 15.358L14.5011 15.251V12.45L14.1811 12.443C11.5231 12.435 9.25107 13.527 7.31507 15.745C6.82007 16.312 5.89007 15.876 6.01007 15.132C6.83707 9.99198 9.60907 7.08798 14.2001 6.57398L14.5011 6.54398Z" fill="#FAF3F3"/>
</svg>
